<svg width="38" height="30" viewBox="0 0 38 30" fill="none" xmlns="http://www.w3.org/2000/svg">
<path d="M15.0617 5.48007L8.63408 7.42048L7.17877 11.6651L6.20857 19.3055L2.32774 21.8523V26.7033L35.6786 28.1586V21.8523L32.2828 20.397L31.5552 11.6651L25.7339 5.48007H21.8531L20.8829 1.8418H16.7595L15.0617 5.48007Z" fill="#FF6F00"/>
<path d="M2.08595 25.7332C2.08595 26.1835 2.26483 26.6154 2.58324 26.9338C2.90165 27.2522 3.33351 27.4311 3.78381 27.4311H34.3453C34.7956 27.4311 35.2275 27.2522 35.5459 26.9338C35.8643 26.6154 36.0432 26.1835 36.0432 25.7332V22.3375C36.0432 21.8872 35.8643 21.4554 35.5459 21.1369C35.2275 20.8185 34.7956 20.6396 34.3453 20.6396H3.78381C3.33351 20.6396 2.90165 20.8185 2.58324 21.1369C2.26483 21.4554 2.08595 21.8872 2.08595 22.3375V25.7332Z" fill="#FF6F00" stroke="#451E07" stroke-width="3.39572" stroke-linecap="round" stroke-linejoin="round"/>
<path d="M15.6686 12.1501V3.66075C15.6686 3.21045 15.8475 2.77859 16.1659 2.46018C16.4843 2.14177 16.9162 1.96289 17.3665 1.96289H20.7622C21.2125 1.96289 21.6443 2.14177 21.9627 2.46018C22.2812 2.77859 22.46 3.21045 22.46 3.66075V12.1501" fill="#FF6F00"/>
<path d="M15.6686 12.15V3.66075C15.6686 3.21045 15.8475 2.77859 16.1659 2.46018C16.4843 2.14177 16.9162 1.96289 17.3665 1.96289H20.7622C21.2125 1.96289 21.6443 2.14177 21.9627 2.46018C22.2812 2.77859 22.46 3.21045 22.46 3.66075V12.15" stroke="#451E07" stroke-width="3.39572" stroke-linecap="round" stroke-linejoin="round"/>
<path d="M5.48129 20.6396V15.546C5.48129 12.8442 6.55458 10.2531 8.46504 8.34264C10.3755 6.43217 12.9666 5.35889 15.6685 5.35889" fill="#FF6F00"/>
<path d="M5.48129 20.6396V15.546C5.48129 12.8442 6.55458 10.2531 8.46504 8.34264C10.3755 6.43217 12.9666 5.35889 15.6685 5.35889" stroke="#451E07" stroke-width="3.39572" stroke-linecap="round" stroke-linejoin="round"/>
<path d="M22.4604 5.35889C25.1623 5.35889 27.7534 6.43217 29.6639 8.34264C31.5743 10.2531 32.6476 12.8442 32.6476 15.546V20.6396" fill="#FF6F00"/>
<path d="M22.4604 5.35889C25.1623 5.35889 27.7534 6.43217 29.6639 8.34264C31.5743 10.2531 32.6476 12.8442 32.6476 15.546V20.6396" stroke="#451E07" stroke-width="3.39572" stroke-linecap="round" stroke-linejoin="round"/>
</svg>
